HIERARCHY
ROOT Hip
{
    OFFSET 0.0 0.0 0.0
    CHANNELS 6 Xposition Yposition Zposition Zrotation Xrotation Yrotation
    JOINT RightHip
    {
        OFFSET -12.327881545957279 0.0 0.0
        CHANNELS 3 Zrotation Xrotation Yrotation
        JOINT RightKnee
        {
            OFFSET 0.0 0.0 -41.46891246093216
            CHANNELS 3 Zrotation Xrotation Yrotation
            JOINT RightAnkle
            {
                OFFSET 0.0 0.0 -41.11373258541475
                CHANNELS 3 Zrotation Xrotation Yrotation
                End Site
                {
                    OFFSET 0.0 -16.4454930341659 0.0
                }
            }
        }
    }
    JOINT LeftHip
    {
        OFFSET 12.327881545957279 0.0 0.0
        CHANNELS 3 Zrotation Xrotation Yrotation
        JOINT LeftKnee
        {
            OFFSET 0.0 0.0 -41.46891246093216
            CHANNELS 3 Zrotation Xrotation Yrotation
            JOINT LeftAnkle
            {
                OFFSET 0.0 0.0 -41.11373258541475
                CHANNELS 3 Zrotation Xrotation Yrotation
                End Site
                {
                    OFFSET 0.0 -16.4454930341659 0.0
                }
            }
        }
    }
    JOINT Spine
    {
        OFFSET 0.0 0.0 22.066107301952314
        CHANNELS 3 Zrotation Xrotation Yrotation
        JOINT Thorax
        {
            OFFSET 0.0 0.0 22.42237947416305
            CHANNELS 3 Zrotation Xrotation Yrotation
            JOINT Neck
            {
                OFFSET 0.0 0.0 2.514714617371696
                CHANNELS 3 Zrotation Xrotation Yrotation
                JOINT Head
                {
                    OFFSET 0.0 0.0 20.88413233412423
                    CHANNELS 3 Zrotation Xrotation Yrotation
                    End Site
                    {
                        OFFSET -8.353652933649693 0.0 0.0
                    }
                }
            }
            JOINT LeftShoulder
            {
                OFFSET 18.255728316152222 0.0 0.0
                CHANNELS 3 Zrotation Xrotation Yrotation
                JOINT LeftElbow
                {
                    OFFSET 30.24937572927054 0.0 0.0
                    CHANNELS 3 Zrotation Xrotation Yrotation
                    JOINT LeftWrist
                    {
                        OFFSET 26.04312528554653 0.0 0.0
                        CHANNELS 3 Zrotation Xrotation Yrotation
                        End Site
                        {
                            OFFSET 10.417250114218614 0.0 0.0
                        }
                    }
                }
            }
            JOINT RightShoulder
            {
                OFFSET -18.255728316152222 0.0 0.0
                CHANNELS 3 Zrotation Xrotation Yrotation
                JOINT RightElbow
                {
                    OFFSET -30.24937572927054 0.0 0.0
                    CHANNELS 3 Zrotation Xrotation Yrotation
                    JOINT RightWrist
                    {
                        OFFSET -26.04312528554653 0.0 0.0
                        CHANNELS 3 Zrotation Xrotation Yrotation
                        End Site
                        {
                            OFFSET -10.417250114218614 0.0 0.0
                        }
                    }
                }
            }
            JOINT Nose
            {
                OFFSET 0.0 0.0 20.308533650732112
                CHANNELS 3 Zrotation Xrotation Yrotation
                End Site
                {
                    OFFSET -8.123413460292845 0.0 0.0
                }
            }
        }
    }
}
MOTION
Frames: 9
Frame Time: 0.03333333333333333
24.971832238592295 62.36977032337 17.26446891951174 -22.745407306367703 -4.172066415397391 1.0721754029333628 -7.9609716658826155 10.388441291162792 1.2745220026272435 1.0526102506837327 5.592903782544966 0.6982563290315844 3.1805546814635168e-15 2.4848083448933746e-17 7.951386703658792e-16 8.606687250991373 9.627413101140949 -1.275041221480125 1.6781381769628854 9.509386315565644 -1.7557740888633957 0.0 0.0 0.0 -3.876429308951391e-17 7.391919449716982 6.001009343816972e-16 1.0407066762296044 -0.011294984612761632 0.6553293806033421 -177.15223977008128 -31.817011636864347 -173.9476509433288 -3.578124016646456e-15 9.931289170612858e-32 -3.180554681463516e-15 -90.50034360333635 22.61074049331988 17.717425156404946 4.694219839485826e-15 -1.0462856453268919e-14 -19.05281630934073 -6.3611093629270335e-15 8.827812596100317e-32 -1.5902773407317584e-15 100.82820634587674 41.103644293680915 -22.147671002007726 -1.8610206595370973e-14 -4.512494148707271e-15 17.732108533883423 0.0 0.0 3.1805546814635168e-15 0.0 0.0 0.0
24.971832238592295 62.36977032337 17.26446891951174 -22.745406936670037 -4.172066331147221 1.072172855654162 -7.960972560376097 10.388439457078144 1.2745194141465392 1.0526098350698285 5.592905276808999 0.6982567295646008 0.0 0.0 -3.975693351829396e-16 8.606691368175941 9.62742434387771 -1.2750411667271295 1.6781274093579328 9.509358457892269 -1.7557679440574776 0.0 0.0 -3.975693351829396e-16 -3.232841854365874e-15 7.391915410113285 7.068268903097242e-16 1.0407270249605698 -0.011294883084245583 0.6553376710469706 -177.15224745561852 -31.8171234613496 -173.94764922446888 -1.9878466759146976e-15 1.9878466759146975e-16 1.5902773407317582e-15 -90.5003661529671 22.61075418617344 17.71741656102322 4.036235576773744e-15 -1.43837222467985e-14 -19.052803243962394 6.3611093629270335e-15 -8.827812596100317e-32 -1.5902773407317584e-15 100.82821755333818 41.1036925902219 -22.14769441618989 1.22550720609527e-15 -7.856378465866471e-15 17.73210138565808 0.0 0.0 0.0 0.0 0.0 0.0
24.90696075241999 62.20774698225331 17.302695635610053 -22.36544593727678 -4.205643712428225 0.774881652308157 -8.391206442282051 10.259893114418444 1.374965139017857 0.9631529310511993 5.9169772973174375 0.7753566966705497 0.0 0.0 0.0 8.129403428281474 9.070235023584795 -1.1561545903942005 1.739677284715142 10.63366089674228 -1.8541049977444521 0.0 0.0 3.975693351829396e-16 -4.438626761979161e-17 7.2568456367332255 6.999584451391315e-16 0.6917239803176362 -0.010327362195011935 0.6354635618607101 -177.29051448244513 -33.03494385369486 -174.24948251628751 -7.951386703658792e-16 -1.1034765745125397e-32 1.5902773407317584e-15 -90.41566608468635 21.472126423409716 18.249036051268096 5.681840251834432e-15 -4.277421157839325e-15 -20.816462010459265 0.0 0.0 1.5902773407317584e-15 97.39664356667762 35.146340745163236 -19.786961455111438 4.264529221568527e-15 1.1002993366313279e-14 22.86791597503645 0.0 0.0 0.0 0.0 0.0 0.0
24.976963524454334 62.382586248033476 17.261445214962308 -21.763186910614415 -4.12695528648929 -3.2761353294610447 -10.453080627648346 8.749640798656259 2.168019860109671 2.128133268424627 7.136365401144391 1.021950330280796 0.0 -1.9878466759146977e-16 0.0 7.312783512276165 9.460393003102892 -1.7615466112939182 -0.06171126542124029 10.257958218902226 -1.2732872730698919 0.0 -1.5902773407317584e-15 0.0 7.284617148342332e-17 6.951638836019508 -1.199330671629746e-15 -0.15232306138062784 -0.04679298817039423 3.689664026109121 -178.0867976741334 -33.14140789797146 -175.22803459986417 1.1927080055488188e-15 -1.6552148617688095e-32 -1.5902773407317584e-15 -89.27250413400039 16.837795797165622 17.71962055506034 -1.7812526479997682e-14 7.318839012519708e-15 -29.24993037673622 0.0 0.0 -5.963540027744094e-16 90.91818887289031 20.59786736572068 -17.590597047400365 1.2303908017539148e-15 -2.9329279835582144e-15 45.51701250901016 0.0 0.0 -1.5902773407317584e-15 3.1805546814635164e-15 3.9756933518293955e-16 -1.1034765745125397e-32
25.035390063643447 62.528512658046076 17.227016302384953 -21.778573177731833 -4.041399807409445 -8.811371866325148 -11.885776089981603 6.850946895180713 2.290863931998699 2.963781355270641 8.020527208673906 1.219259497123196 0.0 -1.9878466759146976e-15 0.0 6.42684925009809 11.056829166947916 -2.0563126374698713 -1.0846976422517978 8.133468287276635 -0.7094908287910693 3.4483642953516864e-33 1.987846675914698e-16 -1.987846675914698e-15 -3.040958300468469e-15 6.919450553708791 -2.4050715730052587e-15 -0.5236980118149703 -0.06989102645376556 8.230231911238214 -178.86489871886008 -31.71990007904389 -176.02702769838925 1.1927080055488188e-15 0.0 0.0 -88.29633290772625 13.829509286121604 17.40066894584763 -3.9679747934893206e-16 -1.0453908091378132e-15 -41.5703742481214 0.0 0.0 0.0 89.58246611456255 20.93677412728083 -17.410077179789994 1.6975173189317487e-14 -5.059182454124268e-15 54.989524769121545 0.0 0.0 3.975693351829396e-16 7.327774127622334e-34 -4.2241741863187335e-16 1.987846675914698e-16
25.045371291140583 62.55344182065592 17.221134680545237 -21.289413627333715 -4.130328732119979 -13.384764175062074 -13.526715551486648 5.13495530296739 2.017760681749608 3.7861999802950086 8.042475396606985 1.3327883211033724 0.0 0.0 -3.975693351829396e-16 4.965071134306395 12.140269382609493 -1.7679229666577458 -1.6349100973288222 7.333416268024643 -0.3692594661863714 0.0 0.0 -3.975693351829396e-16 3.3856148330631756e-16 6.923646925544182 -5.596626629963838e-15 -1.2103142628853072 -0.031605916414894665 11.717283451242675 -179.71874605776023 -28.88634168032946 -177.5547058085458 1.1927080055488188e-15 0.0 0.0 -88.91758245870014 13.906659476732788 17.678743709975475 1.1992842171335234e-14 -4.319586955604234e-15 -46.76872321389837 -6.3611093629270335e-15 8.827812596100317e-32 -1.5902773407317584e-15 89.03077976024822 23.28487758614191 -16.992949490136642 4.394409623784505e-15 -7.098889419965768e-15 63.517315040180726 0.0 0.0 1.5902773407317584e-15 3.1805546814635168e-15 2.758691436281349e-33 9.93923337957349e-17
25.045265246008892 62.553176961816405 17.221197169589068 -20.974264676890527 -4.328602037374278 -14.307256061772915 -14.34564270200113 4.300386762324734 2.0371125783098374 4.685300912371317 8.471999692785104 1.386672432140979 3.1805546814635168e-15 -2.2069531490250793e-32 -7.951386703658792e-16 4.881031940132034 12.2308214698947 -1.8879506790143712 -2.4638792699285283 6.987964294493891 -0.231749897252315 0.0 0.0 -7.951386703658792e-16 -1.916236407454688e-16 6.858657198555087 3.1977431718005016e-15 -1.4712711689764335 -0.0008154402482886522 12.068949573397418 179.77878824761515 -29.094769900286796 -178.65071570575202 -1.5902773407317584e-15 -2.2069531490250793e-32 1.5902773407317584e-15 -87.74736708243708 11.969463853129636 17.56376458769235 1.5049551349128324e-15 -9.626082420174345e-15 -63.74803614410634 0.0 0.0 0.0 86.82706195800974 19.570534395561975 -16.08146101380937 -2.4250096109546444e-15 -7.098533534588397e-15 78.26672304197466 0.0 0.0 -1.5902773407317584e-15 0.0 0.0 4.969616689786745e-17
24.892140404219557 62.17073160810928 17.31142879830701 -20.328426116248615 -4.548499819729711 -14.440295495637427 -14.958775031545821 2.7347475753955974 1.9385906282533512 4.656082766161529 11.159687992618544 1.9256125168696407 0.0 0.0 -7.951386703658792e-16 4.794549445027161 12.448992855571689 -2.1005452906754454 -3.595943860446886 6.557084606003393 -0.05460894914068633 3.1805546814635168e-15 6.069121159818968e-32 2.1866313435061676e-15 3.1020223630697053e-15 6.848673987637829 1.4075053973258466e-15 -2.20513386908216 -0.011880382718329575 12.287337939458594 179.83166691862758 -28.043943482544904 -177.10977210136957 7.951386703658792e-16 0.0 0.0 -87.16141950023075 12.579286714159268 16.747538953486256 1.7742327223116562e-14 -8.17370799494003e-15 -74.14825200083042 -6.3611093629270335e-15 0.0 0.0 85.92093834496765 19.55848725228742 -15.023891387608876 -1.2855018657207482e-14 4.179407410146764e-15 87.83439711064844 0.0 0.0 0.0 0.0 0.0 5.466578358765419e-16
24.98375474125529 62.39954802432786 17.257443365583942 -20.014401210522824 -4.732266984580982 -15.39697460503748 -15.439600083185534 -0.4386720948383477 1.178038946167783 5.2897340708459355 15.960981550160112 2.716627985254049 0.0 0.0 3.975693351829396e-15 5.073374563361546 12.058082092983398 -2.1922085769677064 -4.58342982712527 6.363717884513748 0.025678481355565785 0.0 0.0 -1.3914926731402886e-15 3.196394445046341e-15 6.5855381046256545 -1.8389820861312703e-16 -2.6772186952013817 -0.03914895773477626 13.51919489253659 179.74558056217742 -29.780661145411432 -174.70785834903205 7.951386703658792e-16 0.0 0.0 -86.4486735369607 13.476397999906599 14.992859718018149 -3.2437634666147464e-15 -3.764981887879735e-15 -81.49384281745687 6.3611093629270335e-15 0.0 0.0 85.97056997954978 21.754576740345637 -13.48635505089085 -3.02628864635757e-15 -1.4694249788557456e-14 92.71447000255175 0.0 0.0 -1.5902773407317584e-15 0.0 0.0 -9.93923337957349e-17
